<svg id="Layer_1" data-name="Layer 1" xmlns="http://www.w3.org/2000/svg" viewBox="0 0 1083.82 524.95"><defs><style>.cls-1,.cls-5{fill:#fff;}.cls-1,.cls-2{stroke:#1d1d1b;}.cls-1,.cls-2,.cls-3{stroke-miterlimit:10;}.cls-2,.cls-3{fill:none;}.cls-3{stroke:#203867;stroke-width:2px;}.cls-4{fill:#009ccc;}</style></defs><path class="cls-1" d="M832.31,281.41" transform="translate(-158.09 -437.53)"/><path class="cls-2" d="M678,487.83" transform="translate(-158.09 -437.53)"/><path class="cls-3" d="M673.37,740" transform="translate(-158.09 -437.53)"/><path class="cls-4" d="M1241.91,437.53l-32.47,85H833.9c-30.67,66.48-61.33,179-92,245.45H331c-7.52-10.23-12-49.86-12-63.53A61.5,61.5,0,0,1,323.62,681H678l19.77-47.16L770,437.53Z" transform="translate(-158.09 -437.53)"/><polygon class="cls-5" points="335.49 524.4 207.17 524.6 173.64 442.54 304.13 442.54 335.49 524.4"/><polygon class="cls-5" points="333.01 442.37 421.58 442.37 454.29 524.16 365.16 524.4 333.01 442.37"/><polygon class="cls-5" points="448.33 441.46 510.91 441.46 543.85 524.72 483.92 524.95 448.33 441.46"/><polygon class="cls-4" points="914.53 442.37 882.67 524.47 713.51 524.47 678.54 442.37 914.53 442.37"/><path class="cls-4" d="M385,719.53a73.45,73.45,0,1,1-5.49-27.92A73.12,73.12,0,0,1,385,719.53Z" transform="translate(-158.09 -437.53)"/><path class="cls-5" d="M842.26,961.93H731.18c-58.08-139-118.93-300.1-177-439.07H194.4l-36.31-84.77H624.83L725.77,675.77l1.76,4.36C759.74,758.42,810.05,883.64,842.26,961.93Z" transform="translate(-158.09 -437.53)"/><path class="cls-4" d="M1239.38,317.87" transform="translate(-158.09 -437.53)"/></svg>